<?xml version="1.0" encoding="UTF-8" standalone="no"?>
<!-- Created with Inkscape (http://www.inkscape.org/) -->

<svg
   width="360.01001mm"
   height="360mm"
   viewBox="0 0 360.01001 360"
   version="1.1"
   id="svg8"
   inkscape:version="1.1 (c68e22c387, 2021-05-23)"
   sodipodi:docname="volley-indoor.svg"
   xmlns:inkscape="http://www.inkscape.org/namespaces/inkscape"
   xmlns:sodipodi="http://sodipodi.sourceforge.net/DTD/sodipodi-0.dtd"
   xmlns="http://www.w3.org/2000/svg"
   xmlns:svg="http://www.w3.org/2000/svg"
   xmlns:rdf="http://www.w3.org/1999/02/22-rdf-syntax-ns#"
   xmlns:cc="http://creativecommons.org/ns#"
   xmlns:dc="http://purl.org/dc/elements/1.1/">
  <defs
     id="defs2" />
  <sodipodi:namedview
     id="base"
     pagecolor="#ffffff"
     bordercolor="#666666"
     borderopacity="1.0"
     inkscape:pageopacity="0.0"
     inkscape:pageshadow="2"
     inkscape:zoom="0.35"
     inkscape:cx="407.14286"
     inkscape:cy="707.14286"
     inkscape:document-units="mm"
     inkscape:current-layer="layer1"
     showgrid="false"
     inkscape:window-width="1920"
     inkscape:window-height="1017"
     inkscape:window-x="1912"
     inkscape:window-y="-8"
     inkscape:window-maximized="1"
     fit-margin-top="0"
     fit-margin-left="0"
     fit-margin-right="0"
     fit-margin-bottom="0"
     inkscape:pagecheckerboard="0" />
  <metadata
     id="metadata5">
    <rdf:RDF>
      <cc:Work
         rdf:about="">
        <dc:format>image/svg+xml</dc:format>
        <dc:type
           rdf:resource="http://purl.org/dc/dcmitype/StillImage" />
        <dc:title />
      </cc:Work>
    </rdf:RDF>
  </metadata>
  <g
     inkscape:label="Calque 1"
     inkscape:groupmode="layer"
     id="layer1"
     transform="translate(-72,-72)">
    <g
       id="g6121"
       transform="matrix(0.4653733,0,0,0.4653733,145.70534,227.72618)">
      <path
         d="M 441.416,318.81 V 158.125 h -49.93 l -3.366,-2.829 c -24.014,-20.176 -50.669,-35.72 -79.227,-46.2 -27.899,-10.239 -56.992,-15.43 -86.472,-15.43 -29.478,0 -58.573,5.192 -86.478,15.433 -28.561,10.481 -55.218,26.024 -79.231,46.199 l -3.366,2.828 H 13.416 V 318.81 H 0 v 42.356 H 454.832 V 318.81 Z M 222.422,111.616 c 53.165,0 103.789,17.811 146.98,51.608 -8.217,9.251 -16.436,18.501 -24.653,27.751 -36.389,-27.81 -78.51,-42.461 -122.34,-42.461 -43.829,0 -85.944,14.65 -122.327,42.46 L 75.431,163.225 c 43.197,-33.798 93.825,-51.609 146.991,-51.609 z M 108.697,318.81 H 71.469 l -3.188,-53.001 h 43.604 z m 174.743,0 H 171.392 V 174.005 c 16.522,-4.985 33.63,-7.539 51.018,-7.539 20.927,0 41.446,3.698 61.031,10.885 V 318.81 Z m 99.923,0 h -37.229 l -3.188,-53.001 h 43.604 z"
         id="path2" />
    </g>
    <path
       d="m 251.43548,100.94677 a 58.830488,58.830488 0 0 0 -29.62259,8.00304 4.8186099,4.8186099 0 0 0 -0.64677,0.39496 59.121779,59.121779 0 1 0 30.26936,-8.398 z m 44.54252,80.40068 a 80.257505,80.257505 0 0 1 -55.40413,-2.93758 49.178457,49.178457 0 0 1 11.69599,-12.5896 59.106967,59.106967 0 0 0 21.96022,4.31008 59.595737,59.595737 0 0 0 26.40361,-6.17137 48.906916,48.906916 0 0 1 -4.65569,17.38847 z m 4.21135,-28.54632 a 49.311759,49.311759 0 0 1 -14.5052,6.07758 89.855228,89.855228 0 0 0 -15.15196,-44.2068 49.454935,49.454935 0 0 1 29.65716,38.11442 z m -45.05597,-41.79255 a 80.114325,80.114325 0 0 1 20.73581,49.11921 49.217953,49.217953 0 0 1 -19.74839,-3.4066 59.398257,59.398257 0 0 0 -21.96516,-42.71085 48.98591,48.98591 0 0 1 17.27984,-3.18937 c 1.24909,0 2.46855,0.0938 3.6979,0.18761 z m -30.91613,8.03266 a 49.459871,49.459871 0 0 1 12.12058,11.18747 90.116894,90.116894 0 0 0 -33.11807,40.48423 49.158708,49.158708 0 0 1 20.99749,-51.6717 z m -15.45806,65.86092 a 80.282192,80.282192 0 0 1 32.68361,-46.18657 49.143897,49.143897 0 0 1 4.90254,19.21026 59.408126,59.408126 0 0 0 -23.27843,42.60717 49.652418,49.652418 0 0 1 -14.30772,-15.63086 z m 42.67629,24.66082 a 49.114275,49.114275 0 0 1 -18.62274,-3.6732 49.287073,49.287073 0 0 1 3.31774,-18.63756 88.374094,88.374094 0 0 0 51.71612,6.16644 49.188331,49.188331 0 0 1 -36.41112,16.14432 z"
       id="path2-9"
       style="stroke-width:8.81944" />
  </g>
</svg>
