<?xml version="1.0" encoding="UTF-8" standalone="no"?>
<!-- Created with Inkscape (http://www.inkscape.org/) -->

<svg
   width="360.01001mm"
   height="360mm"
   viewBox="0 0 360.01001 360"
   version="1.1"
   id="svg8"
   inkscape:version="1.1 (c68e22c387, 2021-05-23)"
   sodipodi:docname="volley-outdoor.svg"
   xmlns:inkscape="http://www.inkscape.org/namespaces/inkscape"
   xmlns:sodipodi="http://sodipodi.sourceforge.net/DTD/sodipodi-0.dtd"
   xmlns="http://www.w3.org/2000/svg"
   xmlns:svg="http://www.w3.org/2000/svg"
   xmlns:rdf="http://www.w3.org/1999/02/22-rdf-syntax-ns#"
   xmlns:cc="http://creativecommons.org/ns#"
   xmlns:dc="http://purl.org/dc/elements/1.1/">
  <defs
     id="defs2" />
  <sodipodi:namedview
     id="base"
     pagecolor="#ffffff"
     bordercolor="#666666"
     borderopacity="1.0"
     inkscape:pageopacity="0.0"
     inkscape:pageshadow="2"
     inkscape:zoom="0.35"
     inkscape:cx="407.14286"
     inkscape:cy="707.14286"
     inkscape:document-units="mm"
     inkscape:current-layer="layer1"
     showgrid="false"
     inkscape:window-width="1920"
     inkscape:window-height="1017"
     inkscape:window-x="1912"
     inkscape:window-y="-8"
     inkscape:window-maximized="1"
     fit-margin-top="0"
     fit-margin-left="0"
     fit-margin-right="0"
     fit-margin-bottom="0"
     inkscape:pagecheckerboard="0" />
  <metadata
     id="metadata5">
    <rdf:RDF>
      <cc:Work
         rdf:about="">
        <dc:format>image/svg+xml</dc:format>
        <dc:type
           rdf:resource="http://purl.org/dc/dcmitype/StillImage" />
        <dc:title />
      </cc:Work>
    </rdf:RDF>
  </metadata>
  <g
     inkscape:label="Calque 1"
     inkscape:groupmode="layer"
     id="layer1"
     transform="translate(-72,-72)">
    <path
       d="m 251.43548,100.94677 a 58.830488,58.830488 0 0 0 -29.62259,8.00304 4.8186099,4.8186099 0 0 0 -0.64677,0.39496 59.121779,59.121779 0 1 0 30.26936,-8.398 z m 44.54252,80.40068 a 80.257505,80.257505 0 0 1 -55.40413,-2.93758 49.178457,49.178457 0 0 1 11.69599,-12.5896 59.106967,59.106967 0 0 0 21.96022,4.31008 59.595737,59.595737 0 0 0 26.40361,-6.17137 48.906916,48.906916 0 0 1 -4.65569,17.38847 z m 4.21135,-28.54632 a 49.311759,49.311759 0 0 1 -14.5052,6.07758 89.855228,89.855228 0 0 0 -15.15196,-44.2068 49.454935,49.454935 0 0 1 29.65716,38.11442 z m -45.05597,-41.79255 a 80.114325,80.114325 0 0 1 20.73581,49.11921 49.217953,49.217953 0 0 1 -19.74839,-3.4066 59.398257,59.398257 0 0 0 -21.96516,-42.71085 48.98591,48.98591 0 0 1 17.27984,-3.18937 c 1.24909,0 2.46855,0.0938 3.6979,0.18761 z m -30.91613,8.03266 a 49.459871,49.459871 0 0 1 12.12058,11.18747 90.116894,90.116894 0 0 0 -33.11807,40.48423 49.158708,49.158708 0 0 1 20.99749,-51.6717 z m -15.45806,65.86092 a 80.282192,80.282192 0 0 1 32.68361,-46.18657 49.143897,49.143897 0 0 1 4.90254,19.21026 59.408126,59.408126 0 0 0 -23.27843,42.60717 49.652418,49.652418 0 0 1 -14.30772,-15.63086 z m 42.67629,24.66082 a 49.114275,49.114275 0 0 1 -18.62274,-3.6732 49.287073,49.287073 0 0 1 3.31774,-18.63756 88.374094,88.374094 0 0 0 51.71612,6.16644 49.188331,49.188331 0 0 1 -36.41112,16.14432 z"
       id="path2-9"
       style="stroke-width:8.81944" />
    <g
       id="g6"
       transform="matrix(0.31583331,0,0,0.27308174,170.68519,262.89453)"
       style="stroke-width:1.40769">
      <path
         class="st0"
         d="m 422.969,193.281 c 2.313,-7.922 3.594,-16.313 3.594,-24.969 0,-42.469 -29.375,-78.063 -68.875,-87.844 C 346.813,34.406 305.438,0 256,0 206.562,0 165.187,34.406 154.25,80.469 c -39.438,9.781 -68.813,45.375 -68.813,87.844 0,8.656 1.281,17.047 3.594,24.969 -24.718,19.187 -40.625,49.031 -40.625,82.718 0,57.75 46.781,104.563 104.563,104.563 14.625,0 28.563,-2.969 41.188,-8.406 1.922,1.594 3.844,3.125 5.844,4.563 V 512 h 112 V 376.641 c 2,-1.438 3.922,-2.891 5.75,-4.484 12.719,5.438 26.656,8.406 41.281,8.406 57.781,0 104.563,-46.813 104.563,-104.563 -0.001,-33.687 -15.907,-63.531 -40.626,-82.719 z M 280,480 h -48 v -88.156 c 7.688,2 15.688,3.031 24,3.031 8.312,0 16.313,-1.031 24,-3.031 z m 79.031,-131.437 c -9.906,0 -19.5,-1.922 -28.625,-5.844 l -18.156,-7.844 -0.25,0.25 -14.875,12.625 c -5.203,4.328 -10.969,7.844 -17.125,10.328 -7.594,3.125 -15.688,4.797 -24,4.797 -8.312,0 -16.406,-1.672 -24,-4.797 -6.156,-2.484 -11.922,-6 -17.125,-10.328 L 200,335.125 l -0.25,-0.25 -18.156,7.844 c -9.125,3.922 -18.719,5.844 -28.625,5.844 -40,0 -72.563,-32.563 -72.563,-72.563 0,-22.563 10.234,-43.438 28.234,-57.359 l 17.109,-13.281 -6,-20.891 c -1.5,-5.438 -2.313,-10.875 -2.313,-16.156 0,-26.953 18.313,-50.313 44.484,-56.719 l 18.953,-4.719 4.563,-19.031 C 193.188,54.969 222.25,32 256,32 c 33.75,0 62.813,22.969 70.563,55.844 l 4.469,19.031 19.047,4.719 c 26.172,6.406 44.484,29.766 44.484,56.719 0,5.281 -0.813,10.719 -2.313,16.156 l -6,20.891 17.109,13.281 c 18,13.922 28.234,34.797 28.234,57.359 10e-4,40 -32.562,72.563 -72.562,72.563 z"
         id="path4"
         style="stroke-width:1.40769" />
    </g>
  </g>
</svg>
